# xmcd
#
# Track frame offsets:
#	150
#	28084
#	49391
#	70005
#	86043
#	101399
#	117495
#	144504
#	165316
#	176858
#	212730
#	240447
#
# Disc length: 3735 seconds
#
# Revision: 1
# Processed by: cddbd v1.5.2PL0 Copyright (c) Steve Scherf et al.
# Submitted via: EasyCDDAExtractor 11.1.0.1
#
DISCID=a40e950c
DTITLE=Marva Wright - After The Levees Broke
DYEAR=2007
DGENRE=Blues
TTITLE0=The Levee Is Breaking Down
TTITLE1=Katrina Blues
TTITLE2=God's Good Hands
TTITLE3=That's The Way It Is
TTITLE4=You Are My Sunshine
TTITLE5=You Got A Hold On Me
TTITLE6=Funny Not Sunny Kind Of Love
TTITLE7=Bluesiana Mama
TTITLE8=Rock Me
TTITLE9=I Have Had My Fun
TTITLE10=Crazy
TTITLE11=Change Is Gonna Come
EXTD=
EXTT0=
EXTT1=
EXTT2=
EXTT3=
EXTT4=
EXTT5=
EXTT6=
EXTT7=
EXTT8=
EXTT9=
EXTT10=
EXTT11=
PLAYORDER=
